<?xml version="1.0" standalone="no"?>
<!DOCTYPE svg PUBLIC "-//W3C//DTD SVG 20010904//EN"
 "http://www.w3.org/TR/2001/REC-SVG-20010904/DTD/svg10.dtd">
<svg version="1.0" xmlns="http://www.w3.org/2000/svg"
 width="1024.000000pt" height="1024.000000pt" viewBox="0 0 1024.000000 1024.000000"
 preserveAspectRatio="xMidYMid meet">

<g transform="translate(0.000000,1024.000000) scale(0.100000,-0.100000)"
fill="#000000" stroke="none">
<path d="M3358 9503 l-98 -4 0 -33 c0 -74 -9 -93 -53 -106 -23 -7 -51 -18 -62
-26 -29 -21 -38 -18 -87 26 l-45 39 -77 -73 c-42 -40 -76 -77 -76 -83 0 -5 18
-27 40 -48 22 -21 40 -44 40 -51 0 -6 -11 -37 -25 -68 l-25 -56 -70 0 -70 0 0
-109 0 -109 70 -7 c55 -6 70 -10 70 -24 0 -9 12 -40 25 -70 l26 -55 -47 -47
c-55 -56 -54 -59 42 -148 65 -59 67 -60 78 -40 6 12 27 35 47 51 l36 29 57
-31 c32 -16 67 -30 77 -30 11 0 19 -7 20 -17 0 -10 1 -47 2 -83 l2 -65 118 -3
117 -3 0 86 c0 66 3 85 14 85 8 0 39 13 71 30 l56 30 48 -45 c27 -25 52 -45
58 -45 8 0 75 72 126 137 19 23 18 24 -27 70 -48 48 -53 58 -36 68 5 3 17 31
26 61 l15 54 59 0 c93 0 90 -4 90 121 l0 109 -29 0 c-15 0 -49 3 -74 6 -45 6
-45 7 -67 67 -12 33 -18 62 -13 66 5 3 23 25 42 48 l32 43 -68 75 c-37 41 -71
75 -76 75 -4 0 -22 -16 -39 -35 -43 -49 -65 -60 -86 -42 -26 22 -79 47 -101
47 -18 0 -20 8 -23 67 -2 52 -7 68 -18 68 -8 1 -59 -1 -112 -2z m137 -347 c61
-36 119 -105 144 -170 26 -71 26 -87 0 -172 -36 -119 -144 -198 -266 -196 -79
1 -137 26 -202 87 -121 113 -120 288 1 405 83 80 230 100 323 46z"/>
<path d="M6988 9483 c23 -2 59 -2 80 0 20 2 1 4 -43 4 -44 0 -61 -2 -37 -4z"/>
<path d="M7172 9430 c0 -14 2 -19 5 -12 2 6 2 18 0 25 -3 6 -5 1 -5 -13z"/>
<path d="M5754 9421 c-2 -2 -4 -27 -4 -55 l0 -51 -45 -19 -46 -18 -39 26 c-22
14 -44 26 -49 26 -10 0 -101 -103 -101 -114 0 -4 13 -21 30 -39 35 -37 35 -38
15 -78 -17 -33 -50 -49 -97 -49 l-31 0 7 -61 c3 -34 6 -70 6 -80 0 -16 8 -19
46 -19 88 0 108 -31 64 -95 -17 -24 -30 -47 -30 -52 0 -5 24 -33 54 -62 l54
-54 38 37 c20 20 42 36 48 36 6 0 24 -12 40 -26 21 -19 30 -37 34 -70 l5 -44
82 0 c90 0 95 3 95 72 0 20 8 31 32 42 42 21 44 21 88 -14 l39 -31 54 56 55
57 -34 30 c-22 20 -34 40 -34 57 0 44 14 54 79 59 l61 4 0 84 0 84 -45 0 c-33
0 -50 6 -64 22 -36 38 -36 57 -1 93 39 40 36 55 -24 114 l-45 44 -35 -31 -35
-30 -45 21 c-44 20 -45 22 -48 71 l-3 51 -83 5 c-46 3 -86 3 -88 1z m127 -231
c22 -6 53 -28 77 -54 120 -130 57 -327 -114 -359 -65 -12 -184 81 -204 161
-39 157 91 294 241 252z"/>
<path d="M7460 9376 c0 -2 8 -10 18 -17 15 -13 16 -12 3 4 -13 16 -21 21 -21
13z"/>
<path d="M7180 9361 c0 -5 19 -16 43 -24 23 -8 51 -18 62 -23 41 -15 7 6 -48
31 -31 13 -57 21 -57 16z"/>
<path d="M6600 9185 c13 -14 26 -25 28 -25 3 0 -5 11 -18 25 -13 14 -26 25
-28 25 -3 0 5 -11 18 -25z"/>
<path d="M8042 9202 c-72 -21 -135 -113 -134 -198 1 -107 70 -185 172 -192
105 -8 167 32 200 128 21 61 13 121 -25 186 -39 67 -130 99 -213 76z m99 -115
c19 -12 40 -36 48 -52 12 -26 12 -33 -5 -64 -10 -19 -31 -43 -45 -54 -24 -17
-31 -18 -64 -7 -38 12 -75 59 -75 93 0 30 29 76 58 91 36 20 44 20 83 -7z"/>
<path d="M1570 9134 c0 -28 3 -35 18 -32 21 4 29 47 10 59 -23 15 -28 10 -28
-27z"/>
<path d="M2124 9156 c-10 -26 1 -51 23 -54 17 -3 24 3 29 22 3 14 3 30 -1 35
-9 16 -45 13 -51 -3z"/>
<path d="M1427 9154 c-10 -10 -9 -54 2 -54 12 0 22 43 13 52 -5 5 -11 5 -15 2z"/>
<path d="M1940 9131 c0 -34 18 -51 31 -30 17 26 10 59 -11 59 -15 0 -20 -7
-20 -29z"/>
<path d="M1767 9120 c-3 -11 -1 -20 4 -20 5 0 9 9 9 20 0 11 -2 20 -4 20 -2 0
-6 -9 -9 -20z"/>
<path d="M2346 9123 c-6 -14 -5 -15 5 -6 7 7 10 15 7 18 -3 3 -9 -2 -12 -12z"/>
<path d="M5140 9083 c30 -3 58 -10 62 -16 5 -8 8 -6 8 6 0 15 -9 17 -62 15
l-63 -2 55 -3z"/>
<path d="M6612 9065 c-13 -29 -16 -52 -4 -41 4 4 7 11 8 14 0 4 4 15 9 25 4
10 5 20 3 22 -3 3 -10 -6 -16 -20z"/>
<path d="M6440 8999 c0 -5 5 -7 10 -4 6 3 10 8 10 11 0 2 -4 4 -10 4 -5 0 -10
-5 -10 -11z"/>
<path d="M6548 9003 c6 -2 18 -2 25 0 6 3 1 5 -13 5 -14 0 -19 -2 -12 -5z"/>
<path d="M7540 9001 c0 -17 28 -31 74 -37 36 -5 46 -11 46 -25 0 -11 4 -19 9
-19 6 0 12 -21 14 -47 2 -27 4 -7 5 45 l2 92 -75 0 c-41 0 -75 -4 -75 -9z"/>
<path d="M1240 8969 c0 -27 3 -30 28 -27 21 2 28 9 30 31 3 24 0 27 -27 27
-28 0 -31 -3 -31 -31z"/>
<path d="M1947 8993 c-4 -3 -7 -19 -7 -35 0 -32 14 -35 67 -16 41 15 41 23 3
43 -31 16 -53 19 -63 8z"/>
<path d="M1410 8965 c0 -24 31 -51 44 -38 3 3 6 19 6 35 0 23 -4 28 -25 28
-20 0 -25 -5 -25 -25z"/>
<path d="M1572 8963 c2 -20 9 -29 26 -31 20 -3 23 0 20 25 -2 20 -9 29 -26 31
-20 3 -23 0 -20 -25z"/>
<path d="M1748 8972 c-7 -27 5 -45 28 -40 28 5 26 52 -2 56 -14 2 -23 -3 -26
-16z"/>
<path d="M2120 8982 c-46 -6 -54 -11 -40 -27 15 -18 110 -21 127 -4 11 11 47
9 135 -7 30 -5 39 -3 44 10 4 9 4 19 1 23 -6 6 -224 10 -267 5z"/>
<path d="M7342 8880 c0 -19 2 -27 5 -17 2 9 2 25 0 35 -3 9 -5 1 -5 -18z"/>
<path d="M1244 8825 c-9 -23 3 -45 26 -45 16 0 20 7 20 30 0 23 -4 30 -20 30
-11 0 -23 -7 -26 -15z"/>
<path d="M1414 8815 c-9 -21 3 -45 21 -45 10 0 15 10 15 30 0 32 -26 43 -36
15z"/>
<path d="M1580 8805 c0 -31 26 -43 47 -22 21 21 9 47 -22 47 -20 0 -25 -5 -25
-25z"/>
<path d="M1758 8800 c4 -27 8 -31 31 -28 20 2 26 8 26 28 0 21 -5 26 -31 28
-29 3 -30 1 -26 -28z"/>
<path d="M1928 8819 c-27 -15 -22 -37 10 -44 32 -7 72 5 90 28 10 12 8 16 -10
21 -34 9 -71 7 -90 -5z"/>
<path d="M2108 8819 c-29 -16 -22 -39 11 -39 16 0 36 -3 45 -6 13 -5 16 1 16
25 0 27 -3 31 -27 31 -16 0 -36 -5 -45 -11z"/>
<path d="M2307 8823 c-11 -10 -8 -41 5 -49 12 -8 38 21 38 43 0 13 -32 18 -43
6z"/>
<path d="M7600 8813 c-25 -3 -49 -9 -55 -15 -7 -8 -5 -9 8 -4 10 3 48 6 83 6
41 0 63 4 59 10 -3 6 -16 9 -28 8 -12 -1 -42 -3 -67 -5z"/>
<path d="M8630 8756 c-113 -26 -144 -48 -346 -252 -137 -139 -198 -194 -215
-195 -17 -1 -19 -3 -6 -6 13 -3 -3 -26 -76 -106 -52 -56 -150 -163 -218 -238
-68 -74 -191 -208 -274 -298 -82 -89 -158 -179 -169 -198 -10 -20 -27 -84 -37
-142 -11 -58 -23 -109 -27 -113 -5 -5 -30 -1 -56 8 -63 22 -107 9 -174 -51
-58 -52 -77 -97 -67 -157 6 -34 22 -57 96 -133 l89 -92 -45 -45 c-54 -55 -56
-74 -14 -154 l32 -59 -29 -20 c-46 -32 -113 -102 -204 -215 -47 -58 -103 -125
-125 -149 l-40 -44 -6 84 -6 84 0 -88 c0 -82 -2 -91 -30 -130 -16 -23 -43 -49
-59 -59 l-29 -16 0 896 c0 850 -1 900 -19 957 -48 155 -122 242 -264 313 l-95
47 -1045 3 c-677 1 -1065 -1 -1101 -8 -177 -32 -335 -183 -388 -370 -17 -62
-18 -161 -15 -2410 3 -2304 4 -2346 23 -2420 45 -169 170 -306 327 -359 59
-20 82 -21 1124 -22 963 -1 1067 0 1108 15 138 51 266 188 309 331 7 22 18 51
24 64 9 18 12 311 12 1178 l0 1155 -29 23 c-27 21 -28 25 -15 43 8 11 34 48
58 83 25 35 70 98 101 139 30 41 64 88 74 104 10 16 87 111 170 210 118 141
339 414 352 434 1 2 34 -6 73 -18 66 -19 72 -20 95 -4 14 9 38 35 54 59 l29
43 44 -37 c64 -55 107 -75 166 -75 46 -1 56 3 89 34 51 48 94 118 94 152 0 16
-10 47 -22 68 l-23 40 28 53 c35 67 84 117 150 155 50 29 371 351 697 700 68
72 126 132 128 132 3 0 -1 -6 -7 -13 -11 -14 -5 -27 11 -27 5 0 7 4 3 9 -3 5
-1 12 4 16 6 3 8 11 5 18 -4 12 28 52 163 206 106 120 147 227 146 376 -1 105
-25 189 -73 265 -74 115 -220 209 -357 229 -86 13 -102 13 -173 -3z m221 -196
c42 -44 84 -80 92 -80 31 0 95 -59 112 -104 22 -58 16 -155 -13 -211 -27 -51
-279 -322 -841 -901 -319 -329 -308 -321 -435 -356 -124 -34 -157 -19 -353
159 l-71 65 13 38 c7 20 22 83 34 139 20 98 39 140 77 172 17 14 287 304 469
504 55 61 170 182 255 270 85 88 189 197 231 242 103 110 163 141 283 142 l69
1 78 -80z m-3310 -581 c45 -45 -6 -118 -65 -91 -35 16 -37 73 -4 96 30 21 44
20 69 -5z m-763 -1 c18 -18 15 -87 -3 -94 -25 -10 -64 5 -81 32 -16 24 -16 26
6 49 25 27 59 32 78 13z m548 0 c3 -4 8 -24 11 -46 5 -39 4 -41 -23 -44 -16
-2 -111 -2 -211 0 l-183 3 0 44 0 44 143 4 c173 4 255 3 263 -5z m422 -317 c8
-5 11 -19 8 -37 l-6 -29 14 31 15 32 341 0 340 0 0 -71 c0 -39 -5 -86 -12
-104 -9 -25 -9 -36 -1 -41 8 -5 11 -108 12 -342 1 -184 1 -345 1 -356 0 -13
-9 -24 -21 -27 -17 -5 -18 -3 -8 11 7 9 -46 -44 -118 -118 -72 -74 -128 -137
-125 -140 2 -3 7 1 9 8 3 6 17 12 31 13 22 0 23 2 9 8 -17 6 -17 8 2 25 12 11
21 14 21 8 0 -7 3 -11 8 -11 24 4 52 -3 52 -12 0 -6 -9 -9 -20 -6 -11 3 -20 1
-20 -4 0 -5 9 -9 20 -9 17 0 20 -7 20 -45 0 -38 -3 -45 -20 -45 -18 0 -20 -7
-20 -80 0 -73 -2 -80 -20 -80 -13 0 -20 7 -20 20 0 11 -7 20 -15 20 -8 0 -15
-9 -15 -20 0 -11 7 -20 15 -20 11 0 15 -11 15 -40 0 -33 -3 -40 -20 -40 -13 0
-20 -7 -20 -20 0 -13 -7 -20 -20 -20 -18 0 -20 -7 -20 -60 l0 -60 40 0 c34 0
40 -3 41 -22 l2 -23 4 23 c4 20 10 22 79 22 l74 0 0 36 c0 23 7 43 19 53 12
11 21 38 27 86 8 66 9 61 14 -90 3 -88 8 -165 13 -172 19 -30 -45 -178 -67
-155 -4 3 -4 -1 0 -11 3 -9 1 -17 -4 -17 -6 0 -14 -10 -18 -22 -7 -22 -7 -22
-15 -3 -11 29 -11 47 1 40 6 -3 10 1 10 9 0 8 -4 17 -8 20 -13 8 -92 -6 -86
-15 3 -5 -1 -9 -9 -9 -8 0 -28 -7 -43 -15 -16 -8 -37 -15 -46 -15 -10 0 -18
-6 -18 -14 0 -8 8 -17 18 -19 10 -3 7 -5 -10 -6 l-28 -1 7 -60 6 -60 -42 0
c-34 0 -41 -3 -41 -20 0 -17 -7 -20 -40 -20 l-40 0 0 -80 0 -80 40 0 c33 0 40
-3 40 -20 0 -13 7 -20 20 -20 17 0 20 -7 20 -40 l0 -40 40 0 40 0 0 -59 c0
-58 -1 -59 -31 -65 -17 -3 -44 -6 -60 -6 -19 0 -29 -5 -29 -15 0 -11 -11 -15
-40 -15 -29 0 -40 4 -40 15 0 11 -11 15 -40 15 -29 0 -40 -4 -40 -15 0 -8 -7
-15 -15 -15 -8 0 -15 -8 -15 -18 0 -11 -10 -24 -22 -30 -18 -8 -19 -11 -5 -11
9 -1 17 -5 17 -11 0 -5 9 -10 20 -10 16 0 20 -7 20 -34 0 -19 -5 -38 -10 -41
-8 -5 -8 -11 -1 -19 6 -7 8 -16 4 -19 -3 -4 1 -7 11 -7 9 0 15 -4 11 -9 -3 -5
0 -13 6 -17 8 -5 9 -3 4 6 -5 8 -3 11 6 8 8 -3 19 -14 25 -26 15 -31 26 -40
19 -17 -3 11 1 8 10 -7 8 -15 27 -31 40 -34 14 -3 23 -10 20 -14 -3 -4 2 -13
10 -20 12 -10 18 -10 32 1 11 9 14 10 9 2 -4 -7 -3 -19 1 -27 8 -14 12 -16 34
-16 6 0 9 -9 6 -19 -3 -15 0 -19 13 -16 10 2 34 -8 54 -21 33 -23 41 -35 37
-57 -1 -5 3 -6 8 -3 5 4 11 1 13 -4 2 -6 13 -12 24 -12 19 -2 31 -28 12 -28
-4 0 -8 -4 -8 -10 0 -5 8 -7 18 -3 9 3 14 3 10 -2 -8 -8 33 -45 51 -45 6 0 11
-5 11 -11 0 -6 6 -9 14 -6 7 3 19 0 26 -6 10 -10 11 -1 7 43 -4 36 -3 46 3 30
12 -36 12 -198 0 -205 -5 -3 -10 -1 -10 4 0 6 -5 11 -11 11 -5 0 -7 -6 -3 -12
4 -7 4 -10 0 -6 -4 3 -8 10 -9 15 -4 17 -121 121 -131 116 -6 -4 -8 -3 -4 2 4
4 -9 20 -30 36 -20 16 -50 39 -65 51 -15 13 -30 21 -33 18 -2 -3 -13 10 -24
28 -11 18 -25 30 -30 27 -6 -4 -9 -3 -8 2 4 10 -64 71 -172 155 -47 36 -96 77
-109 92 -13 14 -29 23 -35 19 -6 -3 -8 -3 -4 2 8 9 -31 42 -45 37 -4 -1 -6 2
-5 7 2 5 -15 23 -37 40 -22 17 -50 40 -61 52 -12 12 -26 19 -32 15 -5 -3 -16
2 -23 12 -13 16 -12 16 6 2 15 -11 14 -7 -4 13 -14 15 -26 25 -28 23 -3 -3
-20 11 -180 153 -50 44 -95 81 -99 81 -4 0 2 -9 14 -20 12 -12 22 -25 22 -30
0 -6 7 -10 15 -10 18 0 20 -27 3 -33 -9 -3 -3 -24 21 -73 18 -38 35 -77 37
-87 2 -10 20 -53 40 -95 20 -42 43 -94 51 -114 8 -21 19 -36 23 -33 5 3 8 -3
8 -12 -1 -10 11 -44 25 -75 15 -31 27 -60 27 -64 0 -16 54 -124 62 -124 5 0 6
-4 3 -10 -5 -9 15 -55 132 -310 19 -41 62 -140 95 -220 67 -161 139 -330 158
-372 7 -15 17 -25 23 -21 6 4 7 1 2 -6 -7 -13 22 -91 35 -91 4 0 7 -6 7 -12 1
-7 21 -58 45 -113 l45 -100 -35 -3 c-19 -2 -42 0 -51 4 -9 4 -24 6 -33 5 -10
-1 -18 4 -18 13 0 10 6 13 15 9 12 -4 10 8 -11 53 -14 33 -45 104 -69 159
-163 384 -211 498 -235 560 -15 39 -44 104 -63 145 -19 41 -78 174 -132 295
-54 121 -101 225 -105 230 -4 6 -35 76 -70 157 -34 81 -69 149 -77 152 -9 4
-13 13 -9 22 3 8 2 12 -4 9 -6 -3 -10 1 -10 9 0 9 -5 16 -11 16 -6 0 -8 7 -5
16 8 20 -24 108 -35 97 -7 -7 -13 -51 -10 -63 6 -19 6 -120 0 -142 -4 -16 -4
-28 2 -28 15 0 10 -59 -8 -93 -17 -32 -26 -100 -38 -292 -6 -94 -23 -156 -45
-170 -6 -3 -11 0 -12 7 -1 16 -18 -104 -21 -154 -1 -21 -5 -38 -9 -38 -5 0 -8
-5 -8 -11 0 -5 5 -7 10 -4 6 3 10 2 10 -4 0 -5 -4 -12 -8 -15 -5 -3 -7 -25 -5
-50 2 -25 -1 -47 -6 -51 -6 -3 -11 -27 -11 -52 0 -26 -6 -69 -14 -97 -19 -67
-38 -185 -31 -195 2 -5 -2 -30 -9 -55 -12 -41 -12 -48 0 -53 8 -3 14 -13 14
-22 0 -13 -2 -13 -9 -2 -11 17 -18 5 -22 -39 -2 -19 -8 -41 -13 -49 -8 -11 -8
-13 2 -7 8 5 12 0 12 -14 0 -16 -5 -20 -15 -16 -12 4 -14 -2 -10 -37 4 -31 3
-37 -4 -22 l-10 20 -2 -20 c-1 -11 -3 -33 -4 -50 -4 -66 -16 -119 -28 -127 -6
-4 -28 -8 -48 -8 -29 0 -38 4 -42 22 -4 12 -3 27 2 32 4 6 8 22 9 36 3 36 7
54 14 65 3 6 8 28 12 50 5 39 4 41 -52 87 -31 26 -80 68 -108 92 l-51 46 15
-35 c12 -26 23 -35 40 -35 14 0 21 -4 16 -11 -3 -6 0 -15 7 -20 10 -6 8 -9 -8
-9 -13 0 -23 -4 -23 -9 0 -14 27 -20 38 -9 13 13 32 2 32 -18 0 -18 -17 -18
-54 1 -15 8 -44 15 -62 15 -27 0 -34 -4 -34 -20 0 -18 -7 -20 -60 -20 l-60 0
0 -81 0 -80 -94 3 c-67 2 -92 0 -89 -8 2 -7 0 -15 -6 -19 -6 -3 -11 -15 -11
-25 0 -39 -37 -51 -140 -45 -227 12 -304 13 -280 5 21 -7 19 -8 -18 -9 l-43
-1 1 393 c0 215 0 543 0 727 -1 885 -1 2101 0 2903 l0 338 935 -4 c537 -3 935
-1 935 4 0 11 61 11 78 0z m1494 -573 c29 -23 116 -100 193 -173 77 -72 181
-165 230 -207 50 -41 112 -99 139 -128 l49 -52 -41 -40 c-50 -51 -64 -49 -169
32 -43 33 -109 85 -148 114 -38 29 -107 87 -152 127 -45 41 -102 91 -128 113
-58 48 -145 152 -145 173 0 25 65 83 93 83 14 0 48 -18 79 -42z m14 -393 c16
-25 16 -27 -11 -55 -33 -34 -64 -38 -89 -11 -16 18 -16 21 14 55 38 42 63 46
86 11z m-809 -117 c-2 -13 -4 -3 -4 22 0 25 2 35 4 23 2 -13 2 -33 0 -45z
m899 35 c18 -16 34 -33 34 -38 0 -6 -13 -26 -28 -45 l-29 -34 -36 28 c-20 16
-37 35 -37 43 0 17 40 73 52 73 5 0 25 -12 44 -27z m-1013 -27 c-10 -12 -19
-23 -21 -25 -1 -3 0 6 2 20 5 29 3 26 21 26 13 0 12 -4 -2 -21z m1104 -58 c57
-54 -5 -120 -66 -70 l-22 17 26 38 c14 20 29 37 32 37 4 0 17 -10 30 -22z
m-241 -59 l33 -32 -46 -61 c-26 -34 -74 -90 -107 -126 -34 -36 -114 -131 -178
-210 -64 -80 -158 -187 -207 -239 -50 -51 -91 -97 -91 -100 0 -4 -18 -25 -40
-47 -23 -21 -56 -70 -75 -107 -39 -78 -72 -127 -85 -127 -5 0 -14 9 -20 19
-16 32 22 135 90 240 40 61 106 140 194 230 73 75 151 161 173 191 22 30 69
87 103 125 66 74 175 211 200 251 8 13 17 24 20 24 2 0 19 -14 36 -31z m-749
-11 c-3 -8 -6 -5 -6 6 -1 11 2 17 5 13 3 -3 4 -12 1 -19z m-66 -1123 c75 -26
76 -27 49 -35 -29 -8 -80 6 -96 26 -6 8 -15 10 -19 6 -5 -4 -5 -1 -1 6 9 15
14 15 67 -3z m79 -382 c0 -21 -3 -24 -9 -14 -5 8 -7 20 -4 28 8 21 13 15 13
-14z m-540 -311 c15 -7 20 -17 28 -64 3 -19 -3 -34 -21 -52 -50 -50 -118 -22
-122 51 -1 23 2 47 6 55 5 7 9 9 9 5 0 -4 8 -3 18 2 19 12 60 13 82 3z m390
-38 c0 -17 -22 -14 -28 4 -2 7 3 12 12 12 9 0 16 -7 16 -16z m-893 -386 c50
-47 10 -136 -54 -119 -37 10 -67 53 -59 84 14 58 71 75 113 35z m793 -276 c25
-31 25 -63 3 -90 -31 -36 -60 -37 -93 -3 -31 31 -37 59 -19 92 22 43 76 43
109 1z m-1000 -832 c103 -53 129 -217 45 -295 -143 -135 -359 29 -276 210 42
93 143 130 231 85z"/>
<path d="M8604 8525 c-52 -26 -88 -61 -334 -325 -74 -79 -223 -237 -330 -350
-309 -326 -454 -487 -473 -528 -20 -42 -16 -99 9 -137 14 -21 70 -53 78 -44
85 106 767 837 1058 1135 88 90 149 161 154 178 9 37 -11 72 -49 86 -43 15
-57 13 -113 -15z"/>
<path d="M8839 8413 c-14 -16 -43 -50 -64 -78 -22 -27 -148 -164 -280 -304
-132 -140 -285 -302 -339 -360 -54 -58 -200 -208 -324 -333 l-225 -228 6 -47
c7 -67 48 -103 118 -103 l50 0 247 253 c272 278 417 428 507 527 33 36 130
139 216 230 86 91 171 181 188 201 87 101 80 215 -15 255 -46 19 -57 18 -85
-13z"/>
<path d="M7591 7094 c0 -11 3 -14 6 -6 3 7 2 16 -1 19 -3 4 -6 -2 -5 -13z"/>
<path d="M6441 7624 c0 -11 3 -14 6 -6 3 7 2 16 -1 19 -3 4 -6 -2 -5 -13z"/>
<path d="M6443 7330 c0 -30 2 -43 4 -27 2 15 2 39 0 55 -2 15 -4 2 -4 -28z"/>
<path d="M6412 7320 c0 -19 2 -27 5 -17 2 9 2 25 0 35 -3 9 -5 1 -5 -18z"/>
<path d="M5977 6265 c-4 -8 -3 -16 1 -19 4 -3 9 4 9 15 2 23 -3 25 -10 4z"/>
<path d="M5927 6223 c-4 -3 -7 -11 -7 -17 0 -6 5 -5 12 2 6 6 9 14 7 17 -3 3
-9 2 -12 -2z"/>
<path d="M5769 6053 c-13 -16 -12 -17 4 -4 9 7 17 15 17 17 0 8 -8 3 -21 -13z"/>
<path d="M5735 6019 c-4 -6 -5 -12 -2 -15 2 -3 7 2 10 11 7 17 1 20 -8 4z"/>
<path d="M6391 5963 c0 -11 3 -13 6 -5 2 6 9 9 14 6 13 -8 -9 -34 -29 -34 -8
0 -12 -3 -9 -6 6 -7 67 14 67 23 0 9 -29 33 -39 33 -6 0 -11 -8 -10 -17z"/>
<path d="M6250 5920 c-13 -8 -12 -10 3 -10 9 0 17 5 17 10 0 12 -1 12 -20 0z"/>
<path d="M6320 5910 c-8 -5 -10 -10 -5 -10 6 0 17 5 25 10 8 5 11 10 5 10 -5
0 -17 -5 -25 -10z"/>
<path d="M5570 5853 c-25 -26 -31 -35 -14 -20 17 15 32 26 35 25 2 -2 3 -1 1
1 -1 2 5 13 15 23 36 40 4 15 -37 -29z"/>
<path d="M5439 5833 l-24 -28 28 24 c15 14 27 26 27 28 0 8 -8 1 -31 -24z"/>
<path d="M6325 5807 c-33 -12 -61 -28 -63 -36 -2 -10 0 -12 10 -4 7 5 39 18
71 27 31 10 55 22 51 27 -3 5 -6 9 -7 8 -1 0 -29 -10 -62 -22z"/>
<path d="M5490 5767 c-32 -28 -124 -129 -100 -111 14 10 47 42 74 71 47 51 57
66 26 40z"/>
<path d="M6170 5760 c-49 -17 -51 -18 -15 -13 22 3 48 10 58 15 9 5 22 6 27 3
6 -3 10 -1 10 4 0 14 -14 13 -80 -9z"/>
<path d="M5349 5743 c-13 -16 -12 -17 4 -4 9 7 17 15 17 17 0 8 -8 3 -21 -13z"/>
<path d="M6088 5733 c7 -3 16 -2 19 1 4 3 -2 6 -13 5 -11 0 -14 -3 -6 -6z"/>
<path d="M4918 5654 c5 -27 18 -44 35 -44 12 0 7 14 -17 44 l-24 28 6 -28z"/>
<path d="M5157 5674 c-4 -4 -7 -14 -7 -23 0 -11 3 -12 11 -4 6 6 10 16 7 23
-2 6 -7 8 -11 4z"/>
<path d="M5865 5670 c-16 -7 -17 -9 -3 -9 9 -1 20 4 23 9 7 11 7 11 -20 0z"/>
<path d="M5525 5655 c-25 -12 -26 -14 -5 -9 28 7 60 23 45 23 -5 0 -23 -6 -40
-14z"/>
<path d="M5818 5653 c7 -3 16 -2 19 1 4 3 -2 6 -13 5 -11 0 -14 -3 -6 -6z"/>
<path d="M5420 5629 c-19 -6 -45 -12 -57 -13 -22 -4 -64 -25 -50 -26 13 0 171
41 176 46 7 7 -32 3 -69 -7z"/>
<path d="M5705 5620 c-13 -6 -15 -9 -5 -9 8 0 22 4 30 9 18 12 2 12 -25 0z"/>
<path d="M5600 5585 c-36 -13 -60 -24 -54 -24 13 -1 134 39 134 45 0 7 -12 4
-80 -21z"/>
<path d="M5442 5538 c-35 -11 -61 -22 -59 -24 2 -3 37 6 78 20 41 13 67 24 59
24 -8 0 -43 -9 -78 -20z"/>
<path d="M5308 5408 c5 -5 16 -8 23 -6 8 3 3 7 -10 11 -17 4 -21 3 -13 -5z"/>
<path d="M5398 5383 c6 -2 18 -2 25 0 6 3 1 5 -13 5 -14 0 -19 -2 -12 -5z"/>
<path d="M5350 5356 c0 -2 8 -10 18 -17 15 -13 16 -12 3 4 -13 16 -21 21 -21
13z"/>
<path d="M5083 5222 c-18 -26 -44 -80 -58 -121 -25 -75 -29 -109 -5 -49 8 18
20 42 28 53 15 22 15 21 -4 -45 -3 -12 -1 -20 7 -20 7 0 9 3 6 7 -4 3 -3 11 3
17 5 7 10 33 12 59 3 41 5 45 16 30 11 -15 12 -14 12 9 0 14 5 39 11 56 18 53
6 54 -28 4z"/>
<path d="M4808 5213 c-30 -36 -30 -47 0 -19 18 17 32 31 32 33 0 9 -19 1 -32
-14z"/>
<path d="M5530 5196 c0 -3 9 -10 20 -16 11 -6 20 -8 20 -6 0 3 -9 10 -20 16
-11 6 -20 8 -20 6z"/>
<path d="M5171 5154 c0 -11 3 -14 6 -6 3 7 2 16 -1 19 -3 4 -6 -2 -5 -13z"/>
<path d="M5081 5104 c0 -11 3 -14 6 -6 3 7 2 16 -1 19 -3 4 -6 -2 -5 -13z"/>
<path d="M5166 5095 c8 -37 10 -39 17 -23 2 8 -2 23 -10 33 -13 19 -14 18 -7
-10z"/>
<path d="M4565 5070 c-3 -6 1 -7 9 -4 18 7 21 14 7 14 -6 0 -13 -4 -16 -10z"/>
<path d="M5071 5034 c0 -11 3 -14 6 -6 3 7 2 16 -1 19 -3 4 -6 -2 -5 -13z"/>
<path d="M4956 4923 c-6 -14 -5 -15 5 -6 7 7 10 15 7 18 -3 3 -9 -2 -12 -12z"/>
<path d="M4933 4883 c-3 -10 -8 -22 -11 -27 -3 -5 0 -6 5 -3 11 7 25 47 17 47
-3 0 -7 -8 -11 -17z"/>
<path d="M4901 4810 c-1 -8 -15 -44 -33 -80 -17 -36 -36 -76 -42 -90 -5 -14
-12 -29 -15 -34 -2 -5 1 -6 7 -2 7 4 12 14 12 22 0 8 4 14 9 14 5 0 15 17 21
38 6 20 21 56 32 79 11 23 18 47 15 55 -4 10 -6 10 -6 -2z"/>
<path d="M5142 4790 c0 -14 2 -19 5 -12 2 6 2 18 0 25 -3 6 -5 1 -5 -13z"/>
<path d="M5008 4737 c-3 -19 -2 -25 4 -19 6 6 8 18 6 28 -3 14 -5 12 -10 -9z"/>
<path d="M4772 4515 c-15 -32 -15 -32 3 -32 8 0 11 5 8 10 -3 5 -1 12 5 16 6
4 7 12 3 19 -5 9 -11 5 -19 -13z"/>
<path d="M4742 4441 c-7 -19 -10 -36 -8 -38 8 -8 27 38 24 55 -3 11 -8 5 -16
-17z"/>
<path d="M4696 4323 c-6 -14 -5 -15 5 -6 7 7 10 15 7 18 -3 3 -9 -2 -12 -12z"/>
<path d="M4659 4244 c-5 -15 -13 -32 -16 -38 -4 -6 1 -5 10 3 9 7 17 23 17 35
0 17 2 18 10 6 5 -8 12 -11 15 -8 9 8 -3 28 -16 28 -5 0 -14 -12 -20 -26z"/>
<path d="M4623 4163 c-3 -10 -8 -21 -9 -24 -2 -4 2 -9 9 -12 8 -3 12 6 13 24
1 33 -4 37 -13 12z"/>
<path d="M4936 4096 c3 -8 0 -17 -5 -21 -6 -3 -9 -11 -6 -16 11 -17 21 -9 23
21 1 17 -2 30 -8 30 -5 0 -7 -6 -4 -14z"/>
<path d="M4584 4069 c-3 -6 -2 -15 3 -20 5 -5 9 -1 9 11 0 23 -2 24 -12 9z"/>
<path d="M4642 4020 c0 -14 2 -19 5 -12 2 6 2 18 0 25 -3 6 -5 1 -5 -13z"/>
<path d="M4760 3920 c0 -33 3 -40 20 -40 17 0 20 7 20 40 0 33 -3 40 -20 40
-17 0 -20 -7 -20 -40z"/>
<path d="M4680 3904 c0 -8 5 -24 10 -34 6 -10 11 -37 12 -59 1 -33 3 -37 15
-26 14 15 18 39 5 31 -5 -3 -7 19 -4 49 4 51 3 55 -17 55 -12 0 -21 -6 -21
-16z"/>
<path d="M4480 3854 c0 -6 7 -17 15 -24 8 -7 15 -18 15 -24 0 -6 -7 -3 -15 8
-7 10 -19 15 -25 11 -8 -5 -7 -11 2 -23 11 -13 11 -14 -1 -8 -8 5 -17 3 -22
-5 -13 -21 -11 -35 3 -21 16 16 28 15 28 -2 0 -8 5 -18 12 -22 8 -5 9 0 5 15
-6 26 28 50 46 32 6 -6 15 -11 20 -11 5 0 -3 10 -19 22 -16 13 -37 32 -46 43
-10 11 -17 15 -18 9z"/>
<path d="M4886 3851 c-4 -7 -5 -15 -2 -18 9 -9 19 4 14 18 -4 11 -6 11 -12 0z"/>
<path d="M4417 3711 c-4 -17 -3 -21 5 -13 5 5 8 16 6 23 -3 8 -7 3 -11 -10z"/>
<path d="M4866 3712 c-3 -5 1 -9 9 -9 8 0 15 4 15 9 0 4 -4 8 -9 8 -6 0 -12
-4 -15 -8z"/>
<path d="M4370 3575 c-7 -9 -8 -15 -2 -15 5 0 12 7 16 15 3 8 4 15 2 15 -2 0
-9 -7 -16 -15z"/>
<path d="M4343 3523 c-3 -10 -8 -22 -10 -28 -3 -5 3 -1 11 9 16 20 21 36 11
36 -3 0 -8 -8 -12 -17z"/>
<path d="M4402 3458 c7 -19 38 -22 38 -4 0 10 -9 16 -21 16 -12 0 -19 -5 -17
-12z"/>
<path d="M1246 8654 c-13 -33 -6 -44 24 -44 22 0 30 5 30 18 0 36 -42 57 -54
26z"/>
<path d="M1918 8645 c-14 -31 -1 -45 45 -45 52 0 47 62 -6 68 -21 3 -30 -3
-39 -23z"/>
<path d="M2496 8651 c-22 -24 -18 -49 9 -67 18 -12 24 -11 43 2 26 18 28 46 6
68 -21 21 -37 20 -58 -3z"/>
<path d="M1424 8645 c-9 -21 3 -45 21 -45 10 0 15 10 15 30 0 32 -26 43 -36
15z"/>
<path d="M1570 8624 c0 -31 3 -35 23 -32 17 2 23 11 25 36 3 29 1 32 -22 32
-23 0 -26 -4 -26 -36z"/>
<path d="M1740 8629 c0 -29 2 -30 37 -27 65 5 56 57 -9 58 -25 0 -28 -4 -28
-31z"/>
<path d="M2130 8641 c0 -24 25 -45 45 -37 8 3 15 17 15 31 0 21 -5 25 -30 25
-23 0 -30 -5 -30 -19z"/>
<path d="M2320 8629 c0 -11 5 -17 10 -14 6 3 10 13 10 21 0 8 -4 14 -10 14 -5
0 -10 -9 -10 -21z"/>
<path d="M7523 8600 c19 -25 37 -52 40 -60 5 -13 6 -13 6 0 1 8 -17 35 -40 60
l-41 45 35 -45z"/>
<path d="M7897 8611 c-12 -46 42 -71 64 -29 10 18 8 24 -7 35 -25 19 -51 16
-57 -6z"/>
<path d="M5294 8594 c-10 -38 17 -61 51 -46 42 20 27 72 -22 72 -16 0 -25 -8
-29 -26z"/>
<path d="M6243 8614 c-7 -3 -13 -16 -13 -29 0 -44 50 -60 74 -22 20 32 -22 67
-61 51z"/>
<path d="M4100 8580 c0 -23 6 -33 25 -42 32 -14 57 5 53 41 -3 22 -9 26 -40
29 -36 3 -38 2 -38 -28z"/>
<path d="M1560 8490 c-25 -47 -4 -78 45 -66 18 5 25 13 25 30 0 40 -53 68 -70
36z"/>
<path d="M1251 8486 c-18 -22 -9 -51 17 -54 21 -3 23 0 20 29 -3 37 -19 47
-37 25z"/>
<path d="M1410 8491 c0 -5 -3 -16 -6 -24 -7 -18 26 -53 36 -38 11 18 -1 71
-16 71 -8 0 -14 -4 -14 -9z"/>
<path d="M1740 8467 c0 -34 12 -47 46 -47 11 0 14 10 12 38 -3 32 -7 37 -30
40 -26 3 -28 1 -28 -31z"/>
<path d="M1924 8476 c-7 -31 10 -56 38 -56 16 0 19 6 16 38 -2 29 -7 38 -25
40 -17 3 -24 -3 -29 -22z"/>
<path d="M2114 8473 c-8 -32 20 -60 43 -42 19 17 16 47 -6 59 -28 14 -30 13
-37 -17z"/>
<path d="M6837 8439 c7 -7 15 -10 18 -7 3 3 -2 9 -12 12 -14 6 -15 5 -6 -5z"/>
<path d="M6880 8420 c8 -5 22 -9 30 -9 10 0 8 3 -5 9 -27 12 -43 12 -25 0z"/>
<path d="M7188 8413 c7 -3 16 -2 19 1 4 3 -2 6 -13 5 -11 0 -14 -3 -6 -6z"/>
<path d="M6943 8347 c0 -31 3 -60 8 -62 10 -7 9 73 -1 100 -5 13 -7 -1 -7 -38z"/>
<path d="M7166 8383 c-6 -14 -5 -15 5 -6 7 7 10 15 7 18 -3 3 -9 -2 -12 -12z"/>
<path d="M1762 8321 c-22 -14 -11 -65 15 -69 26 -4 39 28 23 58 -12 22 -18 24
-38 11z"/>
<path d="M1251 8307 c-6 -6 -11 -22 -11 -35 0 -35 44 -27 48 9 3 29 -18 45
-37 26z"/>
<path d="M1410 8285 c0 -31 3 -35 25 -35 19 0 25 5 25 23 0 25 -17 47 -37 47
-8 0 -13 -13 -13 -35z"/>
<path d="M1550 8295 c-16 -41 -13 -45 31 -45 39 0 40 1 37 33 -2 27 -8 33 -30
35 -22 3 -30 -2 -38 -23z"/>
<path d="M1943 8304 c-7 -18 6 -45 26 -52 9 -3 11 6 9 29 -3 36 -24 50 -35 23z"/>
<path d="M7000 8269 c0 -5 41 -9 92 -9 50 0 89 2 87 5 -9 8 -179 12 -179 4z"/>
<path d="M1394 8127 c-10 -27 0 -52 24 -55 22 -3 52 13 52 27 -1 29 -66 53
-76 28z"/>
<path d="M1552 8128 c-18 -18 -15 -36 7 -48 45 -24 79 -2 66 41 -7 22 -54 26
-73 7z"/>
<path d="M1234 8115 c-9 -23 3 -45 24 -45 25 0 44 23 36 44 -8 20 -53 21 -60
1z"/>
<path d="M2824 7977 c-178 -91 -270 -164 -423 -336 -71 -80 -149 -165 -173
-189 l-44 -42 -23 31 c-56 76 -156 108 -235 75 -73 -30 -145 -121 -146 -184 0
-12 9 -41 20 -63 l21 -40 -27 -50 c-30 -54 -47 -67 -174 -130 -171 -84 -316
-194 -505 -384 -239 -239 -300 -337 -300 -480 1 -58 6 -79 30 -123 64 -117
169 -167 276 -130 78 26 120 65 751 687 126 124 231 222 234 218 11 -11 -104
-151 -278 -337 -95 -102 -198 -215 -228 -250 -30 -35 -107 -122 -171 -193
-136 -150 -179 -224 -179 -306 0 -78 18 -127 67 -181 40 -45 48 -49 114 -61
95 -17 179 -2 278 48 83 42 204 155 412 385 137 151 196 251 260 442 46 137
67 176 112 210 25 18 40 21 123 18 155 -5 214 37 214 150 -1 72 -26 121 -98
192 l-61 59 48 56 c27 31 92 103 145 161 63 68 108 128 129 170 18 36 55 96
84 133 28 38 55 83 58 100 3 18 20 89 37 158 30 125 30 127 12 152 -11 14 -43
42 -73 61 -46 31 -62 36 -110 35 -48 0 -73 -9 -177 -62z m204 -25 c2 -7 -26
-43 -62 -80 -63 -66 -80 -102 -55 -117 22 -14 59 7 120 70 62 64 89 82 73 48
-4 -10 -20 -67 -35 -126 -24 -95 -33 -115 -75 -165 -25 -31 -61 -87 -79 -124
-41 -83 -128 -190 -233 -285 l-79 -72 -59 43 c-87 64 -248 196 -256 210 -9 17
34 75 186 248 138 158 199 206 380 299 128 66 165 77 174 51z m-962 -565 c58
-51 254 -213 339 -281 89 -70 315 -298 315 -317 0 -21 -55 -69 -79 -69 -42 0
-276 175 -526 393 -196 170 -215 190 -215 223 0 33 62 94 95 94 13 0 44 -19
71 -43z m-36 -355 l45 -44 -473 -473 c-514 -514 -526 -524 -590 -491 -96 50
-118 163 -54 284 31 58 127 177 181 224 36 31 142 127 311 283 98 89 164 133
272 176 84 35 109 56 146 121 l27 47 45 -42 c25 -23 65 -61 90 -85z m384 -337
c-10 -5 -38 -28 -60 -50 -43 -41 -48 -53 -79 -190 -8 -38 -30 -93 -47 -123
-36 -59 -159 -204 -282 -332 -45 -47 -121 -130 -169 -185 -135 -153 -204 -203
-287 -207 -32 -1 -47 5 -71 28 -47 45 -62 80 -55 131 9 66 44 116 178 259 314
331 527 574 638 729 l64 91 95 -70 c83 -62 92 -71 75 -81z"/>
<path d="M2597 7542 c-43 -29 -56 -53 -57 -105 0 -82 59 -119 131 -81 39 20
72 89 63 133 -13 63 -81 89 -137 53z"/>
<path d="M1711 6894 c-39 -16 -64 -38 -286 -250 -88 -83 -182 -170 -210 -191
-27 -22 -78 -70 -112 -107 -71 -75 -79 -107 -40 -144 60 -57 105 -25 443 312
236 235 293 298 299 325 6 29 4 38 -15 53 -27 21 -35 22 -79 2z"/>
<path d="M2038 6418 c-128 -150 -210 -239 -395 -430 -134 -137 -143 -149 -143
-185 0 -50 14 -63 65 -63 51 0 97 32 157 111 24 30 60 73 81 95 21 21 40 51
44 67 3 16 12 27 22 27 10 0 12 3 5 8 -8 5 -7 11 4 22 9 8 18 14 19 13 13 -12
23 4 23 36 0 37 2 39 36 46 42 7 40 6 142 108 112 112 136 164 111 236 -9 25
-17 31 -38 31 -23 0 -46 -21 -133 -122z"/>
<path d="M1244 7915 c-10 -25 4 -45 30 -45 17 0 25 7 28 25 3 13 3 27 0 30
-11 11 -53 4 -58 -10z"/>
<path d="M1416 7921 c-4 -7 -5 -15 -2 -18 9 -9 19 4 14 18 -4 11 -6 11 -12 0z"/>
<path d="M1174 7526 c-43 -42 -50 -62 -44 -121 7 -77 135 -139 208 -101 36 19
78 70 87 108 11 44 -12 96 -57 129 -34 24 -51 29 -96 29 -51 0 -57 -3 -98 -44z
m146 -46 c58 -58 -31 -148 -92 -93 -22 20 -23 61 -2 91 19 28 67 29 94 2z"/>
<path d="M6713 7460 c0 -36 2 -50 4 -32 2 17 2 47 0 65 -2 17 -4 3 -4 -33z"/>
<path d="M9040 7381 c-13 -25 -4 -48 21 -56 38 -12 65 35 37 63 -18 18 -46 14
-58 -7z"/>
<path d="M9035 7220 c-14 -44 37 -66 70 -30 15 16 15 22 5 35 -19 23 -67 19
-75 -5z"/>
<path d="M8660 6914 c0 -19 -5 -44 -10 -55 -7 -12 -7 -19 -1 -19 5 0 13 10 17
22 l7 23 8 -23 c5 -12 15 -22 24 -22 8 0 15 -4 15 -10 0 -5 9 -10 20 -10 16 0
20 -7 20 -30 0 -39 23 -40 58 -2 15 15 37 28 49 28 12 0 20 -2 17 -5 -5 -5 60
-31 97 -38 21 -4 25 -9 21 -29 -4 -21 -1 -24 29 -24 26 0 30 -3 19 -10 -10 -7
-11 -10 -2 -10 7 0 16 8 19 18 4 9 14 22 22 29 14 10 11 17 -26 55 l-42 42
-24 -22 c-29 -27 -58 -28 -81 -3 -15 16 -45 27 -93 33 -9 1 -13 18 -13 50 l0
48 -75 0 -75 0 0 -36z m398 -165 c-3 -8 -7 -3 -11 10 -4 17 -3 21 5 13 5 -5 8
-16 6 -23z"/>
<path d="M8428 6819 c-27 -23 -48 -46 -48 -53 0 -6 11 -29 25 -51 l25 -40 -6
46 c-6 43 -4 48 20 64 14 10 41 19 59 20 17 2 33 3 35 4 4 1 -54 51 -59 51 -2
-1 -25 -19 -51 -41z"/>
<path d="M3510 6765 c-14 -7 -56 -48 -94 -92 -37 -43 -232 -243 -433 -446
l-364 -367 -57 50 c-58 52 -100 68 -149 55 -67 -16 -189 -137 -213 -211 -10
-30 -9 -39 8 -66 l20 -32 -43 -82 c-23 -45 -54 -98 -68 -116 -29 -38 -142
-108 -259 -162 -124 -56 -241 -144 -403 -303 -388 -382 -512 -532 -555 -671
-63 -201 16 -397 197 -492 51 -26 136 -50 180 -50 26 0 31 -3 27 -17 -5 -15
-4 -15 4 -4 6 8 34 21 63 28 123 32 200 86 369 260 63 65 232 237 376 383 192
194 267 276 278 305 8 22 29 94 46 159 18 66 42 143 55 172 49 110 146 182
230 170 74 -12 181 49 221 126 19 36 18 142 -2 183 -15 33 -86 105 -132 135
-23 15 -23 15 65 105 48 50 133 138 188 195 55 58 186 193 291 300 l192 195
-6 152 -7 151 -25 -13z m-136 -327 c-86 -84 -222 -225 -302 -313 -80 -88 -191
-206 -245 -262 l-100 -102 -26 21 -26 20 175 182 c96 99 279 286 406 415 l232
233 21 -21 20 -20 -155 -153z m-792 -685 c74 -71 164 -155 201 -187 37 -33 69
-68 73 -78 4 -13 -8 -34 -37 -69 -51 -61 -71 -61 -163 5 -93 66 -346 295 -346
312 0 20 109 144 126 144 7 0 73 -57 146 -127z m-181 -260 c55 -49 118 -101
141 -118 l40 -30 -38 -30 c-139 -109 -194 -190 -243 -354 -13 -41 -37 -97 -55
-125 -18 -28 -119 -136 -225 -241 -105 -104 -233 -235 -283 -290 -195 -215
-349 -364 -394 -381 -129 -49 -310 46 -350 183 -31 106 1 225 88 334 79 98
499 528 611 625 74 64 127 99 215 143 169 85 251 147 312 232 27 40 55 87 62
105 7 19 14 34 16 34 2 0 48 -39 103 -87z"/>
<path d="M1915 4981 c-46 -29 -105 -87 -311 -306 -104 -110 -239 -252 -300
-316 -89 -92 -114 -123 -119 -153 -14 -74 60 -110 134 -65 36 22 66 51 348
339 99 102 221 225 271 274 125 121 150 182 96 225 -33 26 -80 27 -119 2z"/>
<path d="M9032 6683 c-6 -2 -10 -9 -6 -14 3 -5 1 -9 -5 -9 -5 0 -12 5 -14 10
-3 6 -4 5 -3 -2 4 -21 24 -20 36 1 6 12 9 21 8 20 -2 0 -9 -3 -16 -6z"/>
<path d="M9010 6632 c0 -11 37 -32 44 -25 8 9 -14 33 -30 33 -8 0 -14 -3 -14
-8z"/>
<path d="M9050 6465 c0 -8 -5 -15 -11 -15 -5 0 -7 -4 -4 -10 3 -5 -1 -10 -9
-10 -22 0 -20 -17 5 -43 l20 -22 -39 -6 c-22 -3 -47 -13 -57 -22 -24 -25 -35
-12 -35 40 l0 46 -20 -25 c-33 -43 -114 -71 -185 -66 -34 3 -74 12 -91 21
l-30 15 4 -34 c3 -25 9 -34 23 -34 10 0 19 -4 19 -10 0 -5 -5 -10 -11 -10 -5
0 -3 -10 5 -22 10 -14 16 -44 16 -75 l0 -53 83 0 83 0 2 43 c4 69 21 96 67
105 33 8 47 5 84 -14 24 -13 44 -24 45 -24 1 0 19 22 40 49 l37 50 -26 39
c-29 44 -26 65 14 87 l26 14 -27 1 c-18 0 -28 -5 -28 -15z"/>
<path d="M8402 6354 c-12 -18 -22 -37 -22 -42 0 -4 20 -28 45 -52 l46 -45 23
30 c21 26 22 30 8 33 -26 6 -62 43 -62 64 0 10 -6 18 -12 18 -10 0 -9 3 1 9 7
5 9 11 4 14 -4 3 -18 -10 -31 -29z"/>
<path d="M8041 6089 c-1 -26 4 -39 15 -43 13 -5 14 -3 6 6 -5 7 -12 27 -15 43
-4 28 -4 28 -6 -6z"/>
<path d="M8466 5903 c-6 -14 -5 -15 5 -6 7 7 10 15 7 18 -3 3 -9 -2 -12 -12z"/>
<path d="M7810 5861 c-87 -29 -151 -84 -206 -177 -26 -44 -29 -58 -28 -134 0
-87 26 -173 61 -202 8 -6 5 5 -8 26 -19 33 -21 47 -16 114 3 51 13 94 28 127
46 97 152 175 259 190 65 9 185 -19 240 -56 l45 -30 -55 52 c-30 29 -74 61
-97 71 -47 21 -183 32 -223 19z"/>
<path d="M8412 5831 l-21 -29 23 -69 23 -68 64 -1 64 0 -63 3 -62 4 5 82 c6
99 -3 119 -33 78z"/>
<path d="M8933 5685 c-75 -32 -95 -91 -45 -137 56 -53 113 -62 168 -29 119 73
8 223 -123 166z m87 -70 c16 -19 6 -45 -18 -45 -29 0 -48 26 -32 45 16 19 34
19 50 0z"/>
<path d="M6993 5606 c-13 -7 -21 -15 -18 -18 3 -3 -2 -21 -10 -41 -18 -44 -19
-85 -2 -236 l12 -116 5 165 c4 143 8 169 25 194 l20 29 5 -29 c3 -16 5 -297 4
-623 -1 -469 -3 -596 -13 -599 -7 -2 -24 1 -37 8 -21 12 -24 20 -27 99 l-3 86
-2 -87 -2 -88 -40 0 c-66 0 -65 9 -63 -479 l2 -434 26 -27 c63 -66 204 -66
278 0 l32 28 2 239 c1 131 0 336 -4 456 l-6 217 -27 0 -27 0 -5 108 c-3 59 -6
310 -7 557 -1 248 -7 470 -12 496 -13 58 -44 109 -66 108 -10 -1 -28 -7 -40
-13z m-3 -1346 c-7 -13 -10 -148 -8 -405 l3 -385 -26 0 c-15 0 -30 7 -33 16
-3 9 -6 188 -6 399 0 412 -3 393 53 394 25 1 27 -1 17 -19z"/>
<path d="M8602 5440 c0 -14 2 -19 5 -12 2 6 2 18 0 25 -3 6 -5 1 -5 -13z"/>
<path d="M8417 5342 c-32 -80 -32 -78 -8 -107 l18 -24 0 27 c0 15 12 56 26 92
18 48 31 66 48 71 19 5 15 7 -17 8 l-41 1 -26 -68z"/>
<path d="M8457 5113 c-4 -3 -7 -11 -7 -17 0 -6 5 -5 12 2 6 6 9 14 7 17 -3 3
-9 2 -12 -2z"/>
<path d="M8108 5041 l-77 -36 -1 -54 0 -54 23 29 c12 16 22 31 22 34 1 27 88
83 128 82 16 0 27 0 26 1 -2 1 -13 9 -24 18 -19 15 -25 14 -97 -20z"/>
<path d="M8380 5023 l-55 -58 58 55 c53 50 62 60 54 60 -1 0 -27 -26 -57 -57z"/>
<path d="M7623 5056 c0 -8 6 -12 14 -9 7 3 19 1 26 -4 15 -13 109 -44 114 -39
3 2 -13 10 -34 16 -21 7 -52 21 -69 31 -37 23 -51 24 -51 5z"/>
<path d="M8770 5059 c-222 -25 -449 -158 -549 -324 -41 -68 -89 -223 -98 -317
-5 -54 -13 -80 -37 -116 -31 -47 -285 -310 -985 -1016 l-376 -379 -5 46 c-3
25 -8 49 -12 52 -3 3 -17 -32 -32 -78 -15 -46 -42 -105 -60 -133 -54 -80 -211
-223 -281 -255 -126 -58 -115 -58 -1227 -56 -560 1 -1006 -1 -992 -5 14 -4
497 -8 1074 -10 990 -3 1047 -4 1036 -20 -25 -35 -419 -447 -433 -453 -8 -3
-38 -5 -66 -5 -64 0 -165 -23 -216 -49 -146 -75 -258 -268 -268 -466 -16 -273
164 -517 415 -566 130 -25 326 12 425 80 145 99 213 197 243 346 15 77 32 105
61 105 7 0 13 -9 13 -20 0 -13 7 -20 20 -20 17 0 20 7 20 40 0 34 3 40 20 40
18 0 20 6 19 53 -2 46 2 57 25 80 15 15 31 27 36 27 4 0 10 3 12 8 2 4 68 70
147 147 79 77 140 133 136 125 -7 -12 -6 -13 7 -3 8 7 19 9 24 5 4 -4 2 2 -6
12 -14 18 -13 19 3 13 10 -4 16 -3 12 3 -3 5 4 14 15 20 11 6 20 17 20 25 0
15 30 35 52 35 9 -1 7 -5 -5 -14 -26 -20 3 -28 37 -11 14 8 28 10 31 5 3 -5
41 -12 84 -16 l79 -6 6 -37 c11 -65 7 -77 -49 -141 -30 -35 -55 -71 -55 -79 0
-26 130 -210 159 -225 23 -13 33 -12 81 5 67 23 77 24 89 1 7 -13 3 -31 -15
-67 -13 -28 -24 -57 -24 -66 0 -27 65 -76 171 -130 l100 -50 35 21 c19 12 34
25 34 28 1 4 14 22 30 41 19 22 33 31 42 25 7 -5 21 -10 31 -11 37 -6 57 -24
57 -51 0 -51 20 -101 43 -109 12 -4 80 -7 150 -6 155 2 168 8 182 83 10 52 11
53 62 73 l53 20 46 -52 c30 -33 54 -51 69 -51 33 0 179 76 221 115 l35 34 -7
80 c-8 93 -5 96 69 60 48 -24 80 -21 113 8 43 39 144 196 144 224 0 8 -20 46
-45 83 -33 50 -45 79 -45 105 0 49 7 55 71 70 36 7 65 21 80 37 22 24 23 31
23 181 -1 185 -2 187 -110 198 -41 5 -68 13 -71 21 -11 30 10 86 52 138 25 30
45 60 45 67 0 14 -77 150 -129 227 -35 52 -37 54 -73 48 -21 -3 -53 -14 -72
-23 -52 -24 -66 -14 -66 51 0 47 -4 60 -30 90 -35 39 -176 116 -214 116 -21 0
-34 -11 -61 -55 -20 -30 -38 -55 -42 -55 -3 0 -32 12 -64 26 l-59 27 0 56 c0
76 -14 94 -81 101 l-54 5 130 135 c246 254 281 287 340 316 53 25 69 28 196
32 129 3 139 2 140 -15 1 -13 3 -12 8 6 5 18 20 27 61 40 230 72 394 272 455
557 17 79 17 83 -1 120 -36 74 -93 61 -277 -64 -205 -139 -230 -152 -277 -140
-42 11 -94 64 -183 188 -76 104 -66 134 85 265 54 47 100 85 102 85 3 0 7 -8
9 -17 3 -12 5 -9 6 8 1 17 23 51 61 94 69 78 78 101 56 143 -28 55 -115 76
-256 61z m138 -108 c18 -11 -4 -35 -158 -166 -69 -59 -137 -123 -153 -143 -70
-92 -53 -175 70 -342 107 -145 140 -170 225 -170 74 0 148 37 365 180 41 28
79 50 85 50 26 0 -48 -208 -105 -295 -78 -116 -156 -173 -297 -215 -94 -28
-197 -23 -315 14 -102 32 -155 66 -232 149 -133 143 -190 342 -147 516 42 169
132 283 284 358 47 24 112 49 145 57 66 16 212 20 233 7z m-738 -773 c25 -54
25 -65 1 -73 -31 -10 -217 -198 -728 -735 -285 -300 -494 -508 -888 -885 -132
-126 -314 -302 -406 -392 l-165 -163 -34 10 c-70 20 -83 3 265 358 77 79 181
177 230 217 93 75 694 678 1330 1332 198 204 364 372 368 372 4 1 17 -18 27
-41z m100 -175 c41 -62 90 -112 152 -155 32 -22 58 -47 58 -54 0 -7 -26 -39
-57 -71 -31 -32 -99 -105 -151 -163 -230 -255 -1749 -1800 -1913 -1946 l-46
-41 -27 61 c-19 45 -51 87 -122 161 l-96 100 213 205 c271 260 1117 1105 1579
1578 195 199 362 362 370 362 8 0 26 -17 40 -37z m-101 -859 c3 -2 7 -34 10
-71 l6 -67 67 -12 c36 -7 75 -17 87 -23 35 -19 54 -12 102 35 l47 46 71 -49
c39 -26 73 -58 77 -69 3 -12 -2 -36 -11 -54 l-17 -32 48 -49 c27 -27 53 -49
59 -49 6 0 38 11 71 23 l60 24 52 -74 c29 -41 52 -80 52 -88 0 -7 -22 -37 -49
-67 l-49 -53 19 -70 c10 -39 18 -80 18 -91 1 -24 24 -34 86 -34 63 0 69 -9 73
-100 6 -123 5 -126 -77 -141 l-70 -12 -11 -51 c-6 -28 -16 -70 -21 -92 -11
-41 -10 -43 37 -103 l48 -62 -22 -42 c-13 -23 -38 -63 -57 -89 l-35 -47 -42
24 c-24 14 -53 25 -66 25 -25 0 -115 -87 -108 -105 2 -5 12 -34 22 -63 l19
-54 -27 -21 c-15 -12 -52 -35 -82 -50 l-55 -29 -38 42 c-21 24 -41 47 -45 53
-4 7 -39 1 -102 -16 -53 -15 -102 -27 -110 -27 -19 0 -26 -22 -26 -81 l0 -49
-104 0 -103 0 -7 31 c-3 17 -6 47 -6 65 0 29 -4 34 -22 34 -13 0 -65 12 -117
26 -89 26 -94 26 -104 9 -5 -10 -25 -34 -42 -54 l-33 -35 -75 49 c-42 28 -76
57 -77 66 0 8 11 37 24 63 l24 48 -50 49 c-28 27 -57 49 -64 49 -8 0 -41 -9
-75 -21 -33 -12 -62 -19 -63 -18 -2 2 -22 39 -45 82 -48 87 -49 78 21 152 l38
41 -24 61 c-14 33 -27 77 -29 97 -2 20 -7 39 -11 43 -4 5 -35 13 -69 18 -57 9
-62 12 -70 42 -15 51 0 82 76 158 89 89 752 762 815 828 l46 49 66 -7 c36 -4
67 -9 69 -11z m-1178 -1127 c-10 -9 -11 -8 -5 6 3 10 9 15 12 12 3 -3 0 -11
-7 -18z m-1113 -140 c126 -44 231 -137 292 -260 42 -84 44 -92 48 -195 4 -102
3 -111 -24 -168 -91 -192 -386 -312 -584 -236 -39 15 -124 83 -165 132 -61 72
-105 177 -109 260 -8 142 36 268 128 367 110 120 256 155 414 100z m490 -412
c-6 -14 -13 -23 -15 -21 -5 5 15 46 22 46 3 0 -1 -11 -7 -25z"/>
<path d="M7954 2787 c-187 -54 -244 -88 -362 -221 -129 -146 -169 -309 -122
-503 54 -227 206 -397 410 -457 110 -33 173 -38 276 -21 53 8 131 30 173 47
65 27 88 44 161 117 65 65 95 104 122 161 121 247 90 489 -86 677 -95 103
-247 184 -372 198 -76 9 -171 10 -200 2z m241 -371 c147 -87 179 -316 58 -427
-45 -42 -80 -61 -139 -75 -62 -14 -101 -5 -180 41 -118 69 -156 224 -88 363
59 120 229 168 349 98z"/>
<path d="M5655 1728 c-199 -72 -245 -313 -97 -502 70 -90 130 -105 251 -60
119 44 187 124 210 247 24 132 -24 229 -150 301 -38 21 -58 26 -115 25 -38 0
-82 -5 -99 -11z m203 -105 c56 -45 82 -97 82 -166 0 -98 -39 -151 -145 -197
-67 -29 -95 -26 -142 15 -51 44 -79 87 -92 144 -37 164 170 306 297 204z"/>
<path d="M7565 5010 c-21 -22 -35 -40 -30 -39 10 1 82 79 73 79 -2 0 -22 -18
-43 -40z"/>
<path d="M6714 4840 c0 -91 2 -128 3 -82 2 45 2 119 0 165 -1 45 -3 8 -3 -83z"/>
<path d="M2826 4757 c-4 -115 -4 -212 -1 -215 10 -11 285 -14 330 -5 43 10 52
25 40 71 -7 26 -8 26 -15 6 -10 -26 -51 -34 -186 -34 l-101 0 -7 46 c-3 26 -6
86 -6 134 0 114 -9 180 -26 180 -7 0 -14 6 -17 13 -2 6 -7 -82 -11 -196z"/>
<path d="M8020 4881 c0 -6 4 -13 10 -16 6 -3 7 1 4 9 -7 18 -14 21 -14 7z"/>
<path d="M7860 4843 c0 -20 32 -73 50 -83 10 -6 34 -10 53 -10 32 0 34 2 31
28 -2 15 -1 21 2 14 9 -19 24 -4 24 24 0 22 -4 24 -49 24 -27 0 -63 3 -80 6
-18 4 -31 2 -31 -3z"/>
<path d="M7405 4680 c-32 -12 -48 -38 -47 -72 1 -38 26 -65 69 -74 42 -8 83
30 83 78 0 39 -7 51 -37 67 -25 13 -40 13 -68 1z"/>
<path d="M3411 4635 c-1 -52 -26 -149 -52 -201 -28 -58 -107 -137 -170 -171
-50 -26 -62 -28 -169 -28 -108 0 -119 2 -180 31 -36 17 -83 46 -105 65 -45 40
-95 114 -96 143 0 20 -1 20 -9 -2 -12 -30 4 -113 31 -162 55 -97 230 -180 382
-180 l37 0 0 -427 c0 -236 -3 -458 -7 -495 l-6 -68 -131 -1 c-72 0 -153 -4
-181 -7 l-50 -7 3 -115 c4 -147 17 -216 42 -223 10 -2 22 -1 27 3 4 4 80 4
168 -1 88 -4 197 -8 243 -8 l83 -1 -5 -736 -6 -737 -26 -44 c-67 -115 -223
-154 -349 -88 l-44 24 10 -23 c26 -57 175 -99 274 -77 105 24 195 112 225 221
14 50 12 814 -2 1115 -7 138 -11 349 -10 469 1 167 -1 222 -11 228 -6 4 -49 8
-94 8 l-83 0 0 423 c0 233 -3 457 -6 498 l-6 74 64 34 c88 48 170 132 192 198
25 76 34 158 26 238 -5 48 -8 57 -9 30z m-173 -1601 c18 -5 22 -13 22 -50 0
-41 -2 -43 -32 -49 -18 -3 -127 -7 -243 -8 l-210 -2 -3 58 -3 57 223 0 c123 0
233 -3 246 -6z"/>
<path d="M7420 4355 c-13 -16 -10 -57 5 -62 21 -6 45 21 39 44 -7 27 -29 36
-44 18z"/>
<path d="M1795 3622 c-32 -8 -35 -15 -65 -173 -9 -46 -19 -64 -60 -107 -53
-56 -82 -104 -111 -191 -24 -69 -23 -147 3 -236 11 -38 23 -112 26 -162 l7
-92 -40 5 c-22 3 -46 7 -53 10 -7 2 -23 -1 -37 -6 -31 -12 -33 -47 -5 -83 11
-14 20 -30 20 -36 0 -6 -37 -51 -82 -100 -100 -106 -184 -229 -238 -346 -73
-158 -95 -283 -80 -442 10 -105 29 -173 79 -274 65 -130 125 -163 246 -135 83
20 135 48 135 75 0 10 -14 61 -32 112 -29 86 -32 105 -32 219 0 105 4 136 23
190 36 103 99 197 204 308 76 80 100 112 109 147 12 43 28 52 28 15 0 -11 40
-66 89 -122 247 -287 302 -487 205 -756 l-37 -103 24 -25 c83 -89 239 -97 310
-17 41 47 94 162 114 245 22 93 20 283 -4 383 -43 179 -139 347 -291 510 -72
77 -84 99 -70 124 14 28 12 63 -6 89 -11 16 -25 22 -53 22 -26 0 -41 5 -45 16
-14 36 -5 127 19 197 18 51 26 94 27 148 1 92 -24 153 -103 261 -41 55 -59 93
-94 201 -42 127 -45 132 -72 134 -15 0 -41 -2 -58 -5z m54 -220 c2 -46 54
-148 103 -199 27 -29 55 -68 63 -88 23 -53 19 -141 -9 -200 -43 -92 -110 -131
-208 -120 -81 10 -117 37 -147 110 -48 118 -27 248 56 344 l29 33 18 -60 18
-61 -27 -36 c-20 -25 -28 -47 -28 -77 0 -36 6 -47 42 -81 37 -34 47 -38 74
-33 37 7 81 47 97 87 23 53 -30 126 -103 143 -22 5 -27 11 -22 24 4 9 9 64 12
122 2 58 7 116 10 130 5 23 6 24 13 5 5 -11 9 -30 9 -43z m-135 -712 c20 -22
36 -47 36 -55 0 -14 -6 -13 -97 20 -9 3 -9 13 -1 39 6 20 15 36 19 36 3 0 23
-18 43 -40z m-122 -145 c20 -13 62 -36 93 -50 l58 -25 -7 -46 c-10 -74 -38
-123 -123 -216 -92 -100 -143 -173 -182 -261 -72 -160 -78 -368 -15 -506 13
-29 24 -55 24 -58 0 -8 -92 -43 -114 -43 -62 0 -153 189 -171 358 -9 78 18
238 56 328 44 106 132 241 218 335 73 80 100 128 101 182 0 34 15 34 62 2z
m498 -2 c0 -38 51 -122 127 -211 167 -194 253 -399 253 -600 0 -90 -38 -238
-84 -330 -41 -82 -56 -88 -135 -52 -34 16 -42 24 -36 37 39 102 48 147 53 258
5 130 -4 194 -40 285 -44 111 -105 201 -225 333 -66 73 -101 132 -104 179 l-3
37 79 40 c88 45 115 50 115 24z"/>
<path d="M8908 3384 c-52 -28 -64 -83 -22 -103 14 -6 52 -14 84 -18 52 -5 59
-3 74 18 23 33 20 62 -10 93 -31 30 -82 34 -126 10z"/>
<path d="M8350 3275 c-7 -8 -16 -12 -21 -9 -5 3 -9 0 -9 -6 0 -6 -9 -21 -21
-33 -22 -23 -43 -57 -35 -57 2 0 27 27 56 60 29 33 50 60 47 60 -2 0 -10 -7
-17 -15z"/>
<path d="M1125 3201 c-51 -23 -91 -70 -106 -124 -22 -84 16 -182 89 -225 40
-23 58 -27 119 -27 69 1 75 3 108 35 41 40 85 126 85 167 0 36 -41 122 -71
150 -13 12 -37 26 -52 32 -43 17 -127 13 -172 -8z m170 -91 c26 -26 30 -38 30
-84 0 -61 -22 -94 -77 -117 -37 -15 -95 0 -128 36 -33 35 -39 111 -11 146 51
65 132 73 186 19z"/>
<path d="M3712 2679 c22 -93 89 -199 126 -199 12 0 12 3 1 16 -11 13 -9 14 12
9 14 -3 36 -2 50 3 14 6 32 6 40 2 8 -5 34 -11 59 -15 24 -4 47 -8 50 -10 3
-2 12 0 20 6 12 7 9 9 -10 9 -75 1 -228 82 -314 166 -36 35 -39 36 -34 13z
m198 -155 c0 -2 -7 -4 -15 -4 -8 0 -15 4 -15 10 0 5 7 7 15 4 8 -4 15 -8 15
-10z"/>
<path d="M2990 2603 c-25 -9 -51 -36 -68 -68 -13 -26 -15 -101 -14 -610 2
-648 -3 -607 74 -649 34 -19 35 -19 73 0 78 39 75 16 74 664 -1 316 -4 586 -8
599 -12 44 -88 81 -131 64z"/>
<path d="M5297 2344 c-3 -4 -59 -8 -124 -9 -65 -2 -131 -8 -148 -13 -21 -7 59
-11 260 -14 160 -2 296 -1 303 3 28 12 -45 26 -148 28 -58 1 -112 4 -121 7 -8
2 -18 1 -22 -2z"/>
<path d="M5618 2293 c12 -2 32 -2 45 0 12 2 2 4 -23 4 -25 0 -35 -2 -22 -4z"/>
<path d="M3976 2238 c-3 -13 -6 -44 -6 -69 l0 -46 -70 -27 -69 -27 -47 36 -48
36 -73 -73 -72 -73 51 -52 50 -51 -23 -51 -23 -51 -72 0 c-40 0 -75 -3 -77 -7
-2 -5 -2 -53 2 -108 l6 -100 63 -6 c35 -3 67 -10 71 -15 5 -5 16 -30 26 -55
19 -53 16 -64 -38 -132 l-31 -37 39 -40 c22 -22 57 -52 78 -67 l38 -27 38 42
c44 47 52 50 89 23 15 -10 41 -23 57 -28 28 -9 30 -14 35 -66 3 -30 7 -58 10
-60 3 -3 48 -7 100 -8 92 -4 95 -3 107 21 7 14 13 44 13 68 0 27 4 42 13 42 7
0 30 9 52 20 22 11 43 20 47 20 4 0 27 -18 50 -41 l41 -40 71 68 c39 37 72 69
75 70 3 2 -20 38 -64 99 -14 19 -14 27 1 77 l17 55 69 4 c46 2 72 9 78 18 6 8
10 56 10 106 0 105 1 104 -89 104 l-58 0 -22 51 c-11 29 -21 57 -21 62 0 6 19
30 41 53 l42 43 -31 38 c-17 21 -48 55 -70 77 l-40 38 -50 -46 -49 -46 -24 19
c-13 10 -38 25 -56 34 -29 15 -32 22 -38 82 l-7 65 -103 0 c-98 0 -103 -1
-109 -22z m219 -279 c55 -26 130 -105 158 -167 32 -71 29 -169 -7 -249 -33
-72 -61 -102 -136 -140 -48 -24 -66 -28 -140 -28 -74 0 -91 3 -131 27 -53 31
-99 81 -131 141 -19 35 -23 58 -23 132 0 127 28 183 133 263 71 54 188 63 277
21z"/>
<path d="M4045 1796 c-51 -22 -85 -71 -85 -122 0 -93 114 -158 183 -104 80 63
68 178 -23 225 -35 18 -37 18 -75 1z"/>
<path d="M5462 2137 c-37 -39 -24 -87 24 -87 46 0 60 69 18 96 -18 13 -23 11
-42 -9z"/>
<path d="M4791 2131 c-32 -32 -26 -57 16 -80 19 -10 26 -8 43 9 23 23 16 55
-18 78 -18 12 -23 11 -41 -7z"/>
<path d="M5233 2138 c-22 -29 -22 -48 1 -75 24 -27 24 -28 45 -9 25 23 27 58
5 80 -19 19 -38 20 -51 4z"/>
<path d="M5010 2121 c-14 -28 -13 -38 10 -61 26 -26 46 -25 65 4 13 19 14 28
4 50 -15 32 -63 37 -79 7z"/>
<path d="M2747 1918 c-3 -79 -2 -170 3 -203 5 -43 7 -1 9 143 0 111 -1 202 -2
202 -2 0 -6 -64 -10 -142z"/>
<path d="M4994 1866 c-9 -37 12 -68 44 -64 29 3 38 24 28 64 -9 35 -63 35 -72
0z"/>
<path d="M6680 1699 c0 -18 -5 -20 -36 -16 -24 4 -37 1 -41 -9 -3 -8 -9 -12
-13 -9 -16 10 -20 -13 -5 -25 17 -14 21 -80 5 -80 -5 0 -10 -5 -10 -11 0 -11
-25 -40 -35 -39 -21 1 -25 -4 -25 -35 0 -23 5 -35 14 -35 9 0 12 8 8 25 -2 15
0 25 7 25 6 0 11 -7 11 -17 0 -12 7 -8 25 13 14 16 20 31 15 32 -6 2 -10 10
-10 18 0 9 5 12 10 9 9 -5 14 7 11 27 0 4 9 5 20 3 13 -3 38 8 65 28 24 18 55
40 69 50 34 24 32 43 -6 56 -51 18 -79 14 -79 -10z"/>
<path d="M6775 1340 c-3 -5 -1 -10 4 -10 6 0 11 5 11 10 0 6 -2 10 -4 10 -3 0
-8 -4 -11 -10z"/>
<path d="M4846 1308 c-21 -29 -20 -51 2 -71 39 -36 82 -15 82 40 0 52 -55 72
-84 31z"/>
<path d="M6773 1305 c-3 -9 -3 -18 -1 -21 3 -3 8 4 11 16 6 23 -1 27 -10 5z"/>
<path d="M6820 1231 c0 -6 4 -13 10 -16 6 -3 7 1 4 9 -7 18 -14 21 -14 7z"/>
<path d="M6868 1203 c6 -2 18 -2 25 0 6 3 1 5 -13 5 -14 0 -19 -2 -12 -5z"/>
</g>
</svg>
